<?xml version="1.0" encoding="UTF-8"?>
<svg xmlns="http://www.w3.org/2000/svg" viewBox="0 0 720 280" width="720" height="280">
  
  <g fill="#1A1814">
  <path d="M551 1429Q623 1429 699.5 1416.5Q776 1404 851.5 1386.0Q927 1368 994.5 1349.5Q1062 1331 1117.5 1318.5Q1173 1306 1209 1306Q1235 1306 1250.5 1318.5Q1266 1331 1272 1356Q1275 1373 1274.0 1394.5Q1273 1416 1275 1445Q1282 1505 1320.0 1545.0Q1358 1585 1435 1585Q1497 1585 1538.5 1539.5Q1580 1494 1579 1408Q1577 1287 1502.5 1216.0Q1428 1145 1303 1145Q1253 1145 1178.5 1160.5Q1104 1176 1019.5 1198.5Q935 1221 851.5 1243.5Q768 1266 696.5 1281.5Q625 1297 578 1297Q529 1297 503.0 1268.5Q477 1240 476 1183Q476 1158 480.0 1137.0Q484 1116 488.0 1094.0Q492 1072 492 1042Q491 982 450.0 941.5Q409 901 341 901Q262 901 214.5 953.0Q167 1005 169 1099Q171 1189 216.5 1264.0Q262 1339 346.5 1384.0Q431 1429 551 1429ZM843 222Q833 189 838.0 173.0Q843 157 858 151L906 133Q951 110 951 72Q951 36 925.5 18.0Q900 0 860 0H324Q282 0 264.5 16.5Q247 33 247 61Q247 89 262.5 107.5Q278 126 302 138L352 154Q365 159 378.5 181.5Q392 204 407 246Q418 277 438.0 344.5Q458 412 483.5 503.0Q509 594 538.0 696.5Q567 799 595.0 901.5Q623 1004 648.5 1094.0Q674 1184 692.5 1250.0Q711 1316 719 1344L1133 1265Q1121 1234 1101.5 1168.0Q1082 1102 1058.0 1014.5Q1034 927 1007.0 828.0Q980 729 954.0 632.0Q928 535 905.5 450.5Q883 366 866.5 306.0Q850 246 843 222Z" transform="translate(46.81 220) scale(0.13 -0.13)"/>
  <path d="M1238 282Q1256 272 1257.5 245.5Q1259 219 1238 178Q1189 85 1087.5 27.5Q986 -30 850 -30Q766 -30 722.0 3.0Q678 36 678 98Q678 135 695.5 179.5Q713 224 735.5 272.5Q758 321 777.5 369.0Q797 417 800 459L833 450Q781 314 713.0 221.5Q645 129 570.5 73.5Q496 18 420.0 -6.0Q344 -30 276 -30Q181 -30 132.5 12.0Q84 54 79.5 128.0Q75 202 109 298L208 581Q232 649 225.0 675.5Q218 702 198 702Q186 702 175.0 697.0Q164 692 146 677Q123 658 107.5 654.5Q92 651 78 658Q59 668 57.5 694.5Q56 721 78 762Q125 855 224.5 912.0Q324 969 459 969Q559 969 606.5 930.5Q654 892 657.0 823.5Q660 755 627 664L529 383Q504 316 509.5 283.0Q515 250 554 250Q580 250 608.5 267.5Q637 285 665.5 316.5Q694 348 719.5 392.5Q745 437 766 492Q785 540 798.0 578.5Q811 617 818.0 646.0Q825 675 825 696Q825 729 813.5 756.5Q802 784 802 820Q802 887 888.0 928.0Q974 969 1128 969Q1238 969 1261.0 901.0Q1284 833 1241 716L1108 358Q1083 291 1090.0 264.0Q1097 237 1117 237Q1129 237 1140.0 243.0Q1151 249 1169 263Q1193 283 1208.0 286.5Q1223 290 1238 282Z" transform="translate(209.58 220) scale(0.13 -0.13)"/>
  <path d="M179 753 139 770Q114 781 103.0 799.0Q92 817 92 839Q92 871 119.0 890.0Q146 909 191 909H234Q274 909 307.0 926.5Q340 944 373 977L532 1133Q557 1157 581.0 1167.0Q605 1177 633 1177Q668 1177 685.0 1159.0Q702 1141 702 1113Q702 1096 697.5 1066.5Q693 1037 682 998L506 362Q487 292 500.0 263.0Q513 234 560 234Q589 234 616.0 248.5Q643 263 674 297Q694 317 707.5 325.0Q721 333 737 333Q757 333 769.0 318.5Q781 304 777 279Q769 227 730.5 173.0Q692 119 627.0 73.0Q562 27 477.0 -1.5Q392 -30 291 -30Q193 -30 141.0 9.0Q89 48 82.0 129.0Q75 210 111 336L196 623Q215 688 210.5 715.0Q206 742 179 753ZM543 746 592 902H824Q877 902 877 850Q877 802 839.5 774.0Q802 746 739 746Z" transform="translate(372.22 220) scale(0.13 -0.13)"/>
  <path d="M179 753 139 770Q114 781 103.0 799.0Q92 817 92 839Q92 871 119.0 890.0Q146 909 191 909H234Q274 909 307.0 926.5Q340 944 373 977L532 1133Q557 1157 581.0 1167.0Q605 1177 633 1177Q668 1177 685.0 1159.0Q702 1141 702 1113Q702 1096 697.5 1066.5Q693 1037 682 998L506 362Q487 292 500.0 263.0Q513 234 560 234Q589 234 616.0 248.5Q643 263 674 297Q694 317 707.5 325.0Q721 333 737 333Q757 333 769.0 318.5Q781 304 777 279Q769 227 730.5 173.0Q692 119 627.0 73.0Q562 27 477.0 -1.5Q392 -30 291 -30Q193 -30 141.0 9.0Q89 48 82.0 129.0Q75 210 111 336L196 623Q215 688 210.5 715.0Q206 742 179 753ZM543 746 592 902H824Q877 902 877 850Q877 802 839.5 774.0Q802 746 739 746Z" transform="translate(474.28000000000003 220) scale(0.13 -0.13)"/>
  <path d="M531 358Q508 290 514.5 263.0Q521 236 541 236Q552 236 563.5 242.0Q575 248 592 262Q616 282 631.0 285.5Q646 289 661 281Q680 271 681.5 244.5Q683 218 661 177Q613 84 514.0 27.0Q415 -30 280 -30Q179 -30 132.5 9.0Q86 48 84.5 117.0Q83 186 116 278L224 581Q249 649 241.5 675.5Q234 702 214 702Q203 702 191.5 696.5Q180 691 163 676Q139 657 124.0 653.5Q109 650 94 657Q75 667 74.0 693.5Q73 720 94 761Q141 853 239.0 911.0Q337 969 469 969Q558 969 605.5 931.0Q653 893 659.5 821.0Q666 749 630 646ZM533 1069Q426 1069 370.5 1117.5Q315 1166 315 1237Q315 1296 351.0 1348.5Q387 1401 453.5 1433.5Q520 1466 613 1466Q726 1466 776.5 1415.5Q827 1365 827 1297Q827 1232 790.5 1180.0Q754 1128 688.5 1098.5Q623 1069 533 1069Z" transform="translate(576.3399999999999 220) scale(0.13 -0.13)"/>
  </g>
  <circle cx="568" cy="42" r="20" fill="#F2C94C"/>
</svg>
