<?xml version="1.0" encoding="UTF-8"?>
<svg xmlns="http://www.w3.org/2000/svg" viewBox="0 0 1024 1024" width="1024" height="1024">
  <rect width="1024" height="1024" rx="224" fill="#1A1814"/>
  <g fill="#F5EFE0">
  <path d="M551 1429Q623 1429 699.5 1416.5Q776 1404 851.5 1386.0Q927 1368 994.5 1349.5Q1062 1331 1117.5 1318.5Q1173 1306 1209 1306Q1235 1306 1250.5 1318.5Q1266 1331 1272 1356Q1275 1373 1274.0 1394.5Q1273 1416 1275 1445Q1282 1505 1320.0 1545.0Q1358 1585 1435 1585Q1497 1585 1538.5 1539.5Q1580 1494 1579 1408Q1577 1287 1502.5 1216.0Q1428 1145 1303 1145Q1253 1145 1178.5 1160.5Q1104 1176 1019.5 1198.5Q935 1221 851.5 1243.5Q768 1266 696.5 1281.5Q625 1297 578 1297Q529 1297 503.0 1268.5Q477 1240 476 1183Q476 1158 480.0 1137.0Q484 1116 488.0 1094.0Q492 1072 492 1042Q491 982 450.0 941.5Q409 901 341 901Q262 901 214.5 953.0Q167 1005 169 1099Q171 1189 216.5 1264.0Q262 1339 346.5 1384.0Q431 1429 551 1429ZM843 222Q833 189 838.0 173.0Q843 157 858 151L906 133Q951 110 951 72Q951 36 925.5 18.0Q900 0 860 0H324Q282 0 264.5 16.5Q247 33 247 61Q247 89 262.5 107.5Q278 126 302 138L352 154Q365 159 378.5 181.5Q392 204 407 246Q418 277 438.0 344.5Q458 412 483.5 503.0Q509 594 538.0 696.5Q567 799 595.0 901.5Q623 1004 648.5 1094.0Q674 1184 692.5 1250.0Q711 1316 719 1344L1133 1265Q1121 1234 1101.5 1168.0Q1082 1102 1058.0 1014.5Q1034 927 1007.0 828.0Q980 729 954.0 632.0Q928 535 905.5 450.5Q883 366 866.5 306.0Q850 246 843 222Z" transform="translate(200.78 780) scale(0.36 -0.36)"/>
  </g>
  <circle cx="800" cy="200" r="62" fill="#F2C94C"/>
</svg>
